<?xml version="1.0" standalone="no"?>
<!DOCTYPE svg PUBLIC "-//W3C//DTD SVG 20010904//EN"
 "http://www.w3.org/TR/2001/REC-SVG-20010904/DTD/svg10.dtd">
<svg version="1.0" xmlns="http://www.w3.org/2000/svg"
 width="993.000000pt" height="993.000000pt" viewBox="0 0 993.000000 993.000000"
 preserveAspectRatio="xMidYMid meet">
<metadata>
Created by potrace 1.11, written by Peter Selinger 2001-2013
</metadata>
<g transform="translate(0.000000,993.000000) scale(0.100000,-0.100000)"
fill="#000000" stroke="none">
<path d="M10 4965 l0 -4965 209 0 c293 0 333 8 281 55 -18 16 -20 16 -26 1 -3
-9 -12 -16 -19 -16 -17 0 -26 37 -15 65 7 19 5 24 -11 28 -11 3 -19 14 -19 26
0 11 -8 24 -17 30 -17 9 -17 11 2 25 19 15 19 17 -7 20 -8 1 -16 28 -21 76 -5
41 -13 78 -19 81 -7 4 -13 17 -15 29 -2 12 -15 37 -29 55 -15 20 -27 50 -29
77 -7 80 -20 118 -40 118 -12 0 -19 14 -45 95 -9 29 -10 40 -1 43 14 5 14 55
0 101 -21 66 -22 68 -26 44 -9 -51 -53 0 -53 62 0 22 -5 47 -10 55 -6 10 -10
11 -10 3 0 -7 -7 -13 -15 -13 -9 0 -15 9 -15 25 0 19 5 25 18 23 14 -3 16 3
14 35 -3 34 -1 37 21 37 28 0 47 -39 47 -97 0 -19 4 -32 8 -29 14 8 51 -29 56
-56 2 -15 9 -42 15 -60 5 -18 17 -59 27 -91 9 -32 26 -70 38 -85 28 -34 57
-109 49 -128 -3 -8 -1 -14 5 -14 6 0 8 -8 5 -18 -3 -11 6 -28 21 -43 14 -13
26 -32 26 -42 0 -9 12 -36 27 -59 19 -28 29 -57 30 -87 3 -74 14 -121 28 -121
7 0 15 4 17 10 7 21 31 -10 30 -39 0 -20 6 -36 19 -44 10 -8 24 -29 31 -48 6
-19 16 -37 22 -41 6 -4 11 -24 12 -43 1 -20 -2 -31 -6 -24 -9 13 -40 5 -40
-11 0 -6 85 -10 250 -10 207 0 250 2 250 14 0 23 31 29 37 6 5 -20 13 -20
1009 -20 l1004 0 0 21 c0 12 4 17 11 14 6 -4 8 -13 5 -21 -5 -12 193 -14 1354
-14 l1359 0 12 23 c6 12 20 31 29 42 10 11 28 39 40 62 22 43 47 70 56 60 6
-6 -23 -62 -72 -135 l-35 -52 2011 0 2010 0 0 1649 c0 1310 -3 1650 -12 1654
-10 4 -10 7 0 18 18 19 16 123 -3 139 -22 18 -26 11 -35 -67 -8 -56 -6 -70 6
-80 12 -8 12 -13 3 -19 -7 -4 -15 -2 -17 4 -9 27 -19 9 -21 -39 -1 -32 2 -48
9 -44 5 3 10 18 11 33 l1 27 9 -30 c4 -16 5 -32 1 -35 -4 -3 -14 -18 -22 -35
l-14 -30 -4 33 c-5 46 -22 40 -22 -8 0 -29 4 -40 15 -40 19 0 19 -16 0 -24 -8
-3 -15 -13 -15 -23 -1 -28 -26 -68 -34 -54 -6 9 -11 9 -22 0 -7 -6 -11 -16 -8
-21 4 -6 -3 -5 -15 1 -11 7 -21 18 -21 26 0 7 -4 17 -10 20 -5 3 -7 0 -5 -7 6
-14 -52 -64 -62 -54 -3 3 1 8 10 12 23 9 14 110 -13 139 -15 16 -20 34 -19 66
1 24 -3 70 -8 101 -9 55 -8 59 13 73 l23 15 -27 45 c-21 34 -33 44 -53 45 -39
0 -63 33 -65 90 -3 57 31 144 47 119 7 -11 9 -10 9 4 0 10 7 20 15 23 8 4 15
14 15 23 0 25 11 33 27 19 11 -8 12 -7 7 6 -4 11 -1 16 10 16 12 0 16 -9 16
-34 0 -19 6 -36 13 -39 20 -8 65 3 78 19 12 15 39 19 39 6 0 -4 9 -19 21 -33
19 -24 23 -25 66 -16 33 8 47 17 54 35 5 13 9 1299 9 3113 l0 3089 -4950 0
-4950 0 0 -4965z m5186 4910 c19 -13 43 -20 132 -42 12 -3 22 -9 22 -13 0 -12
-92 -4 -150 13 -57 17 -179 25 -200 12 -16 -10 -62 3 -54 16 12 20 50 28 139
28 64 1 97 -3 111 -14z m-706 -50 c0 -21 -5 -25 -30 -25 -22 0 -30 5 -30 18 0
25 9 32 37 32 18 0 23 -5 23 -25z m315 15 c-28 -12 -55 -12 -55 0 0 6 17 10
38 9 30 0 33 -2 17 -9z m1205 -76 c13 -34 13 -34 -14 -34 -14 0 -27 -4 -30 -8
-3 -5 -20 -7 -38 -6 -18 1 -50 -6 -72 -17 -47 -23 -46 -22 -46 -6 0 18 54 57
109 78 64 24 80 23 91 -7z m-1395 6 c3 -5 2 -10 -4 -10 -5 0 -13 5 -16 10 -3
6 -2 10 4 10 5 0 13 -4 16 -10z m957 -146 c25 5 35 0 58 -24 23 -25 36 -30 72
-30 31 0 52 -6 68 -20 27 -23 30 -23 65 -10 17 6 24 14 19 22 -6 10 -5 10 7 1
12 -10 17 -8 26 6 7 11 24 18 42 19 18 0 46 5 64 10 69 21 107 24 113 7 4 -8
0 -22 -7 -31 -10 -12 -9 -18 6 -32 13 -13 19 -14 22 -4 7 18 23 15 23 -5 0
-20 -84 -103 -105 -103 -27 0 -16 -35 18 -54 17 -11 46 -33 63 -51 17 -18 51
-43 74 -56 51 -29 91 -66 107 -102 8 -18 23 -28 47 -32 19 -4 38 -14 42 -23 4
-10 8 -19 9 -22 2 -3 6 -15 10 -28 5 -14 14 -22 25 -20 10 2 38 -17 65 -44 26
-27 53 -48 60 -48 7 0 16 -11 19 -25 6 -23 27 -55 51 -76 6 -5 29 -25 52 -45
24 -20 40 -40 37 -45 -2 -5 10 -23 28 -41 46 -46 88 -104 88 -121 0 -8 18 -34
41 -57 40 -41 149 -239 149 -271 0 -22 27 -86 40 -94 5 -3 14 -25 20 -48 6
-23 21 -64 34 -92 44 -95 117 -330 120 -386 1 -21 7 -43 13 -51 5 -7 13 -25
16 -39 8 -31 54 -60 66 -40 6 9 12 5 24 -13 10 -14 17 -29 17 -33 0 -5 10 -13
22 -18 14 -6 25 -23 30 -45 7 -33 6 -59 -8 -205 -3 -41 0 -75 10 -105 8 -25
17 -67 20 -95 3 -27 16 -72 30 -100 14 -27 26 -56 26 -62 0 -7 4 -13 9 -13 17
0 21 -61 6 -90 -8 -16 -15 -48 -15 -72 0 -36 5 -48 30 -70 17 -15 31 -21 33
-14 2 6 7 8 11 5 11 -10 36 -227 30 -259 -8 -36 45 -199 113 -349 39 -85 65
-384 45 -511 -25 -158 -44 -258 -59 -303 -9 -28 -13 -61 -9 -79 4 -21 1 -39
-10 -56 -9 -13 -18 -34 -19 -46 -2 -11 -15 -55 -30 -96 -29 -83 -61 -204 -75
-277 -5 -26 -15 -77 -23 -113 -13 -56 -15 -60 -17 -30 l-2 35 -7 -35 c-8 -42
-18 -60 -32 -60 -6 0 -7 5 -4 10 3 6 1 10 -5 10 -6 0 -13 -13 -16 -30 -4 -16
-13 -35 -21 -41 -11 -10 -16 -6 -26 20 -13 36 -36 41 -38 9 -1 -17 -2 -19 -6
-6 -7 26 -23 22 -23 -6 0 -18 -6 -25 -22 -28 -19 -2 -23 -10 -25 -38 -1 -19
-4 -44 -7 -55 -3 -11 -18 -76 -32 -145 -15 -68 -32 -129 -39 -135 -6 -5 -17
-29 -24 -53 -7 -24 -21 -52 -32 -63 -10 -10 -19 -30 -19 -43 0 -32 -20 -38
-42 -12 l-17 21 -1 -23 c0 -12 -8 -26 -17 -29 -10 -4 -21 -10 -24 -15 -3 -5
-49 -10 -102 -11 -84 -2 -96 -4 -92 -18 4 -11 -4 -20 -24 -29 -16 -6 -37 -20
-47 -31 -9 -10 -21 -16 -25 -13 -5 3 -43 0 -84 -5 -62 -9 -80 -8 -98 3 -15 10
-43 13 -92 11 -38 -2 -115 -1 -170 4 -111 8 -148 4 -142 -13 5 -12 -5 -12 -88
-2 -44 5 -95 19 -95 26 0 4 -23 3 -52 -1 -33 -5 -56 -5 -64 2 -7 6 -17 8 -23
5 -5 -3 -18 10 -30 29 -11 19 -25 36 -31 36 -14 2 -22 5 -43 14 -12 5 -22 2
-32 -11 -7 -11 -17 -16 -21 -11 -4 4 -3 7 2 7 6 0 8 15 6 34 -3 28 -9 35 -33
40 -16 3 -32 13 -36 22 -3 9 -29 39 -57 67 -28 28 -52 55 -52 59 -1 4 -2 12
-3 17 -3 22 -79 91 -99 91 -12 0 -21 3 -20 8 6 24 -17 52 -50 62 -59 15 -77
34 -108 110 -16 38 -34 70 -40 70 -10 0 -47 96 -43 110 3 9 -42 93 -67 127
-13 17 -24 40 -24 50 0 11 -5 24 -12 31 -7 7 -11 45 -12 94 0 82 0 83 25 80
13 -2 55 -6 93 -10 44 -5 71 -12 74 -21 9 -28 63 -78 101 -96 l40 -18 38 30
c63 50 101 59 180 43 37 -7 120 -14 183 -16 63 -1 138 -5 166 -9 41 -6 54 -4
68 10 16 17 16 19 -11 47 -15 17 -40 38 -55 49 l-26 19 -12 -37 c-7 -21 -16
-42 -21 -47 -11 -12 -65 37 -86 78 -22 43 -6 53 64 38 52 -11 59 -10 78 8 28
26 108 27 149 2 29 -17 30 -17 95 14 61 31 66 32 93 18 38 -20 45 -40 24 -74
-22 -37 -11 -63 23 -57 110 20 217 48 229 61 14 13 12 16 -11 27 -22 10 -33 8
-71 -10 -47 -22 -101 -27 -124 -12 -21 13 -19 73 4 100 44 56 79 81 110 81 24
0 38 9 63 40 29 36 30 40 12 40 -18 0 -96 -38 -126 -60 -5 -4 -28 -10 -51 -12
-23 -3 -47 -9 -55 -13 -20 -13 -467 -4 -488 9 -8 5 -8 13 -1 26 7 13 7 21 0
25 -5 3 -10 12 -10 20 0 10 17 14 67 14 61 0 70 2 88 25 12 14 28 26 36 26 9
0 29 11 44 24 42 37 121 44 207 20 13 -4 21 3 28 20 7 18 17 26 34 26 14 0 31
7 40 15 17 17 36 20 36 5 0 -5 13 -10 28 -10 27 0 29 2 29 48 1 26 -3 64 -8
84 -11 43 -36 54 -99 44 -21 -3 -41 -2 -44 3 -3 4 -38 11 -77 14 -55 5 -76 11
-91 27 -12 13 -27 19 -37 15 -10 -3 -35 2 -56 11 -21 8 -47 13 -59 10 -11 -3
-28 2 -38 11 -17 15 -18 15 -18 -6 0 -14 7 -25 20 -28 25 -7 26 -20 3 -25 -17
-4 -42 1 -128 24 -22 6 -47 11 -55 10 -8 0 -32 20 -52 45 -29 34 -38 54 -40
86 -5 120 3 177 25 177 6 0 20 14 30 32 17 30 17 32 -1 50 -17 18 -38 23 -134
32 -36 3 -37 2 -59 -53 -59 -153 -173 -356 -241 -432 -21 -23 -38 -51 -38 -62
0 -15 -5 -18 -25 -13 -14 4 -24 3 -23 -1 0 -5 -2 -15 -6 -24 -6 -13 -24 -17
-89 -18 -45 -1 -99 -6 -120 -12 -27 -7 -42 -7 -51 1 -8 6 -20 8 -29 4 -8 -3
-18 -1 -22 5 -4 8 -12 8 -25 1 -27 -15 -71 -9 -104 13 -26 18 -33 19 -79 7
-47 -12 -52 -11 -67 7 -19 24 -17 24 -174 28 -71 2 -133 8 -137 12 -8 8 -11
31 -18 137 -1 14 -6 17 -26 12 -17 -4 -25 -2 -25 6 0 20 13 33 33 33 9 0 16 2
15 5 -1 3 4 15 11 27 13 25 -3 63 -26 63 -7 0 -13 12 -14 28 -1 25 -1 25 -9
-6 -4 -18 -6 -42 -3 -52 5 -20 -7 -32 -24 -22 -19 12 -28 106 -12 123 15 15
18 63 5 94 -18 47 -30 64 -38 59 -4 -3 -8 0 -8 5 0 6 10 11 22 11 27 0 58 27
58 52 0 11 7 27 16 36 15 14 14 18 -17 44 -19 15 -41 28 -50 28 -22 0 -42 45
-26 58 22 17 48 22 65 13 9 -5 44 -11 77 -15 130 -14 232 -26 268 -32 25 -4
37 -2 37 5 0 7 19 20 43 30 23 11 59 38 80 60 23 26 68 55 120 80 73 35 94 40
186 46 94 7 111 11 168 42 54 30 63 39 63 63 0 38 16 47 43 23 12 -11 43 -27
69 -37 66 -24 76 -39 54 -81 -10 -18 -29 -36 -41 -39 -24 -6 -39 -31 -29 -48
3 -5 12 -7 20 -4 7 3 16 1 19 -4 4 -6 16 -10 27 -10 22 0 90 38 97 54 2 5 18
24 36 42 23 23 34 44 38 78 7 47 56 116 83 116 19 0 23 22 13 74 -5 26 -8 74
-7 106 1 36 -4 65 -11 74 -16 20 -57 21 -68 2 -18 -30 -77 -34 -223 -16 -58 7
-123 14 -145 14 -83 1 -199 -15 -238 -34 -29 -14 -62 -20 -116 -20 -42 0 -110
-5 -151 -10 -61 -8 -78 -15 -97 -37 -13 -14 -23 -30 -23 -34 0 -4 -13 -16 -29
-25 -16 -10 -34 -28 -40 -40 -6 -13 -26 -30 -46 -38 -19 -8 -35 -22 -35 -31 0
-8 -11 -20 -24 -24 -29 -11 -69 -86 -62 -115 3 -13 26 -32 58 -49 62 -32 68
-33 68 -9 0 17 50 52 75 52 8 0 19 9 25 20 6 11 8 20 4 20 -3 0 0 7 7 16 10
12 24 15 52 11 27 -4 40 -1 44 9 3 8 9 11 14 8 19 -11 30 8 12 21 -15 11 -15
15 -4 29 8 9 11 19 8 23 -12 11 14 43 35 43 11 0 41 7 67 15 111 35 248 57
321 51 93 -7 140 -16 140 -26 0 -15 -55 -48 -100 -60 -57 -15 -208 -70 -280
-103 -30 -14 -82 -33 -115 -42 -44 -13 -69 -28 -95 -55 -19 -21 -60 -50 -90
-64 -35 -16 -63 -38 -74 -57 -15 -26 -22 -29 -51 -25 -18 3 -44 11 -58 17 -20
9 -32 7 -66 -11 -30 -15 -58 -21 -99 -19 -57 1 -112 17 -112 31 0 5 -9 8 -19
8 -24 0 -36 16 -19 23 9 4 7 6 -3 6 -9 1 -22 7 -28 15 -7 8 -20 15 -29 15 -9
0 -26 1 -37 3 -17 2 -20 -2 -19 -29 l2 -32 -24 27 c-23 26 -25 26 -38 9 -8
-10 -20 -19 -28 -20 -33 -5 -7 -35 45 -51 21 -7 22 -34 1 -64 -11 -16 -25 -22
-55 -22 -39 0 -39 1 -22 19 10 10 32 22 48 26 l30 8 -28 8 c-15 4 -43 5 -62 2
-29 -5 -33 -9 -33 -34 1 -15 7 -30 14 -33 8 -3 11 -12 8 -20 -3 -8 4 -23 15
-33 25 -20 26 -31 6 -57 -12 -16 -17 -17 -30 -6 -11 9 -18 10 -28 1 -20 -16
-27 -3 -27 51 0 41 -3 48 -20 48 -11 0 -20 5 -20 11 0 6 -7 8 -15 5 -11 -4
-19 3 -25 19 -5 14 -15 25 -23 25 -13 0 -36 85 -40 145 -2 32 -13 45 -37 45
-11 0 -12 -2 -3 -8 17 -11 15 -140 -2 -165 -13 -18 -14 -18 -28 5 -17 26 -32
234 -18 242 5 3 12 18 16 33 3 16 16 38 27 50 12 13 22 31 23 40 1 10 5 25 8
33 3 8 8 36 11 61 6 51 -10 91 -51 127 -15 12 -28 35 -30 53 -1 17 -8 39 -13
50 -6 11 -8 24 -5 29 3 5 -3 26 -14 47 -11 21 -20 32 -21 25 0 -7 -5 -10 -10
-7 -6 4 -8 15 -5 26 4 12 -4 37 -23 67 -22 36 -27 53 -20 65 6 12 5 17 -2 17
-6 0 -18 7 -27 16 -12 11 -13 18 -4 27 18 18 13 37 -10 37 -18 0 -19 2 -9 15
10 13 10 19 -5 35 -10 11 -21 17 -26 15 -4 -3 -10 -1 -14 5 -3 5 2 10 12 10
14 0 15 2 4 9 -7 5 -11 17 -7 27 4 14 -1 22 -16 29 -17 7 -27 27 -40 75 -16
60 -19 96 -17 247 0 29 -5 88 -11 132 -9 66 -8 85 4 108 20 40 21 173 1 173
-19 0 -19 31 0 77 8 19 15 39 15 44 0 5 -7 9 -15 9 -20 0 -19 27 0 38 11 6 16
28 18 85 2 62 7 81 25 102 12 14 22 28 22 31 0 4 7 12 16 19 15 11 50 119 61
192 3 17 16 42 29 54 16 15 24 34 24 55 0 18 5 36 10 39 6 4 10 25 8 47 -2 32
3 44 21 59 18 15 19 19 7 19 -11 0 -16 9 -16 28 0 33 8 44 24 35 18 -12 37
-12 30 -1 -4 7 4 8 24 3 37 -8 74 9 70 33 -2 11 5 18 20 20 26 4 29 17 5 31
-16 9 -15 10 8 11 14 0 34 6 44 14 18 13 17 15 -12 43 l-31 31 41 18 c23 10
55 28 70 41 16 13 34 23 40 23 7 0 19 12 27 26 19 34 99 58 119 37 14 -15 47
-9 67 12 10 10 10 18 -2 40 -17 34 -14 37 50 53 27 7 66 26 86 42 20 16 56 34
80 39 23 5 47 14 53 20 6 6 24 11 40 11 16 0 48 12 73 26 24 14 49 24 56 21 7
-2 36 2 63 10 28 8 150 20 272 27 186 11 236 11 305 0 46 -7 125 -16 177 -19
51 -3 97 -8 101 -10 17 -11 40 8 40 32 l0 25 36 -32 c30 -26 43 -31 66 -26z
m340 -6 c-14 -17 -52 -24 -64 -12 -14 14 7 45 36 52 37 10 53 -12 28 -40z
m-2188 -87 c19 -7 18 -8 -3 -14 -15 -3 -29 0 -38 9 -13 12 -12 14 4 13 10 0
27 -4 37 -8z m3005 -406 c16 -8 31 -25 35 -37 3 -13 19 -32 36 -43 16 -11 33
-28 36 -38 3 -9 23 -26 45 -37 47 -24 50 -44 9 -59 -16 -5 -30 -17 -30 -25 0
-22 -14 -20 -36 6 -10 12 -14 19 -8 15 15 -9 49 17 40 31 -3 6 -27 21 -51 33
-25 12 -47 31 -51 41 -3 10 -10 18 -15 18 -5 0 -9 14 -9 30 0 22 -5 30 -17 30
-28 0 -47 16 -40 34 8 20 20 20 56 1z m211 -317 c10 -18 24 -39 31 -46 8 -9 8
-17 1 -24 -13 -13 -92 58 -92 83 0 32 38 23 60 -13z m267 -440 c25 -23 31 -57
10 -54 -24 3 -67 36 -67 50 0 12 12 22 29 25 3 1 15 -9 28 -21z m53 -173 c20
-24 2 -37 -26 -19 -13 9 -24 19 -24 23 0 13 39 10 50 -4z m95 -432 c4 -22 3
-33 -4 -33 -13 0 -31 42 -31 73 0 19 2 19 14 7 8 -8 17 -30 21 -47z m15 -155
c0 -10 5 -18 10 -18 13 0 13 -50 0 -70 -8 -13 -10 -12 -10 3 0 9 -7 17 -15 17
-9 0 -15 9 -15 24 0 14 -7 31 -15 40 -18 18 -20 43 -2 49 17 6 47 -22 47 -45z
m145 -48 c14 -28 37 -223 28 -246 -3 -9 5 -82 32 -294 7 -54 -6 -80 -32 -64
-33 21 -72 304 -61 449 1 22 -1 73 -6 113 -7 62 -6 72 8 72 8 0 22 -13 31 -30z
m-4591 -125 c-4 -8 -8 -15 -10 -15 -2 0 -4 7 -4 15 0 8 4 15 10 15 5 0 7 -7 4
-15z m-22 -47 c-7 -7 -12 -8 -12 -2 0 14 12 26 19 19 2 -3 -1 -11 -7 -17z
m488 -228 c0 -5 -2 -10 -4 -10 -3 0 -8 5 -11 10 -3 6 -1 10 4 10 6 0 11 -4 11
-10z m-485 -740 c3 -6 3 -20 0 -31 -6 -18 -9 -19 -21 -7 -8 8 -12 22 -8 31 7
19 20 22 29 7z m-8 -82 c-3 -8 -6 -5 -6 6 -1 11 2 17 5 13 3 -3 4 -12 1 -19z
m185 -105 c26 -3 53 -11 59 -19 15 -19 7 -58 -14 -62 -24 -5 -77 20 -77 36 0
7 -13 18 -30 23 -16 6 -30 14 -30 18 0 14 14 22 29 15 9 -3 37 -9 63 -11z
m585 -5 c-3 -8 -6 -5 -6 6 -1 11 2 17 5 13 3 -3 4 -12 1 -19z m352 -70 c1 -10
-3 -18 -8 -18 -5 0 -9 17 -9 38 0 28 2 32 9 17 4 -11 8 -28 8 -37z m61 8 c0
-15 -14 -35 -21 -30 -15 9 -10 34 6 34 8 0 15 -2 15 -4z m-92 -120 c3 -13 -1
-17 -14 -14 -11 2 -20 11 -22 22 -3 13 1 17 14 14 11 -2 20 -11 22 -22z m32
-55 c0 -28 -17 -35 -29 -12 -15 27 -14 31 9 31 13 0 20 -7 20 -19z m140 -31
c0 -5 -5 -10 -11 -10 -5 0 -7 5 -4 10 3 6 8 10 11 10 2 0 4 -4 4 -10z m-727
-45 c20 -19 37 -40 37 -46 0 -13 -20 -33 -41 -41 -9 -4 -19 -19 -22 -35 -4
-21 1 -35 21 -55 14 -16 30 -28 35 -28 22 0 67 64 67 96 0 34 21 59 44 51 8
-3 20 -22 27 -41 10 -26 19 -36 35 -36 14 0 24 -8 28 -22 10 -39 7 -56 -11
-54 -23 2 -44 -82 -40 -161 2 -55 4 -63 22 -63 11 0 33 -7 49 -15 49 -26 64
-12 25 24 -24 22 -37 98 -22 126 9 15 14 13 43 -22 80 -96 111 -304 41 -286
-22 6 -36 59 -21 78 8 9 2 20 -20 39 -18 14 -35 26 -39 26 -19 0 -28 -25 -23
-65 8 -72 -2 -91 -48 -99 -60 -9 -48 -25 14 -19 64 7 99 -7 140 -54 25 -30 28
-40 27 -100 -1 -83 -6 -99 -42 -134 -34 -33 -91 -39 -139 -14 -21 11 -29 12
-32 3 -3 -9 -12 -8 -32 5 -20 13 -26 25 -24 45 2 21 -1 26 -16 24 -10 -2 -15
1 -12 7 8 12 -24 30 -41 24 -6 -2 -17 6 -24 19 -7 13 -16 26 -22 29 -13 9 1
29 21 29 15 0 15 2 2 11 -11 8 -12 12 -2 16 22 9 42 34 36 45 -4 6 -9 7 -13 1
-3 -6 -13 -10 -21 -11 -8 -1 -27 -4 -41 -8 -22 -5 -27 -2 -33 20 -4 15 -11 24
-17 20 -6 -3 -13 3 -16 15 -3 12 -10 21 -15 21 -12 0 -54 48 -73 83 -9 15 -23
27 -32 27 -13 0 -14 3 -5 12 17 17 15 33 -3 18 -12 -10 -16 -8 -25 15 -16 43
-13 77 8 73 9 -2 18 -14 20 -26 3 -17 9 -22 25 -20 30 4 35 44 9 69 -46 42
-35 86 18 73 14 -3 43 -8 65 -11 46 -6 55 -16 55 -60 0 -42 9 -63 27 -63 7 0
24 -11 37 -25 23 -25 24 -25 68 -8 56 20 76 47 54 72 -9 10 -16 22 -16 28 0
23 -58 72 -98 83 -41 11 -42 12 -42 55 0 45 -16 68 -31 44 -6 -9 -9 1 -9 29 0
37 -3 43 -18 38 -28 -9 -56 17 -48 45 7 27 72 119 84 119 4 0 25 -16 45 -35z
m663 1 c8 -8 14 -26 14 -40 0 -14 4 -26 9 -26 12 0 23 -29 15 -42 -4 -6 -10
-5 -15 3 -6 10 -9 10 -9 2 0 -7 -7 -10 -16 -6 -13 5 -15 -2 -12 -46 3 -29 1
-54 -4 -57 -9 -6 -31 43 -24 54 9 15 19 90 18 130 -2 45 2 50 24 28z m-371
-29 c0 -26 -20 -25 -23 2 -3 16 1 22 10 19 7 -3 13 -12 13 -21z m91 -72 c-3
-9 -10 -13 -16 -10 -12 7 -14 68 -2 79 10 11 26 -49 18 -69z m-761 -102 c-3
-8 4 -13 18 -13 12 0 39 -15 59 -34 20 -19 43 -36 50 -39 24 -8 0 -19 -29 -13
-31 7 -133 100 -133 122 0 12 4 12 20 2 11 -7 18 -19 15 -25z m1180 -238 c0
-10 -6 -20 -12 -22 -8 -3 -13 5 -13 22 0 17 5 25 13 23 6 -3 12 -13 12 -23z
m1542 -15 c27 0 63 -28 63 -50 0 -9 -13 -30 -30 -48 -16 -18 -30 -39 -30 -45
0 -7 -6 -23 -13 -37 -13 -26 -16 -75 -4 -87 12 -11 8 -23 -9 -23 -9 0 -18 -9
-21 -21 -5 -17 -12 -20 -43 -18 -21 2 -45 -3 -54 -10 -20 -17 -106 -21 -106
-5 0 6 11 27 24 47 13 19 27 44 30 55 4 10 15 27 26 37 11 10 20 24 20 31 0 7
6 28 14 46 8 18 21 49 30 70 9 20 16 41 16 47 0 16 43 31 55 20 5 -5 19 -9 32
-9z m-1081 -735 c8 -20 23 -44 34 -55 11 -11 20 -26 20 -33 0 -8 9 -22 20 -32
11 -10 20 -26 20 -35 0 -10 12 -25 26 -35 18 -11 24 -23 21 -36 -3 -11 0 -19
7 -19 16 0 61 -61 58 -78 -3 -14 24 -47 81 -100 15 -15 27 -32 27 -39 0 -6 8
-18 18 -25 20 -15 42 -73 42 -109 0 -15 12 -37 30 -54 36 -34 39 -60 8 -69
-39 -10 -48 -7 -48 17 0 13 -4 27 -8 33 -5 5 -19 36 -31 69 -27 71 -44 108
-52 115 -3 3 -18 24 -32 47 -27 43 -73 93 -85 93 -4 0 -29 18 -55 39 -26 22
-63 49 -82 61 -19 12 -35 28 -35 36 0 8 -7 14 -15 14 -8 0 -15 5 -15 11 0 5 4
8 9 5 5 -4 8 13 7 36 -1 28 -6 42 -14 41 -7 -2 -13 7 -14 20 -1 20 0 92 1 110
1 4 10 7 22 7 14 0 25 -11 35 -35z m4924 -425 c13 -8 13 -10 -2 -10 -9 0 -20
5 -23 10 -8 13 5 13 25 0z m-2050 -35 c0 -8 -4 -15 -10 -15 -5 0 -7 7 -4 15 4
8 8 15 10 15 2 0 4 -7 4 -15z m-4802 -177 c3 -43 1 -47 -35 -68 -47 -28 -172
-60 -232 -60 -25 0 -77 -6 -116 -14 -38 -8 -122 -25 -185 -36 -63 -12 -133
-29 -155 -39 -83 -37 -141 -59 -180 -69 -22 -6 -58 -15 -79 -21 -29 -7 -44 -7
-53 1 -9 7 -54 9 -141 5 -125 -5 -130 -6 -193 -42 -35 -21 -69 -44 -76 -53 -8
-9 -18 -12 -30 -7 -17 8 -17 8 0 12 9 3 17 11 17 19 0 28 108 75 220 95 89 17
390 89 460 110 36 11 141 34 233 50 93 16 178 36 190 44 66 43 276 113 298 99
4 -2 12 3 19 11 21 25 35 11 38 -37z m5583 -11 c4 -15 1 -36 -7 -53 -8 -15
-13 -33 -10 -41 8 -19 -13 -27 -30 -12 -14 12 -14 15 5 30 24 20 27 35 7 42
-13 5 -28 56 -20 69 9 15 48 -10 55 -35z m-261 -57 c0 -5 -4 -10 -10 -10 -5 0
-10 5 -10 10 0 6 5 10 10 10 6 0 10 -4 10 -10z m-570 -94 c0 -67 -15 -91 -23
-39 -4 21 -7 55 -7 77 0 33 2 37 15 26 10 -8 15 -30 15 -64z m787 -59 c4 -6
-2 -8 -15 -5 -12 4 -22 2 -22 -3 0 -5 -4 -9 -10 -9 -5 0 -10 8 -10 19 0 14 6
17 25 13 14 -2 28 -9 32 -15z m49 -49 c3 -4 3 -12 -1 -18 -7 -12 -35 4 -35 20
0 9 26 7 36 -2z m-851 -75 c-4 -32 -20 -137 -37 -233 -17 -96 -34 -200 -38
-230 -8 -54 -14 -76 -30 -115 -5 -11 -11 -31 -13 -45 l-3 -25 -14 28 c-11 22
-11 33 -2 48 7 10 12 28 12 38 0 11 5 23 10 26 6 3 10 21 10 39 0 30 6 70 30
201 5 28 14 82 20 120 10 59 22 112 46 193 2 6 6 12 9 12 4 0 3 -26 0 -57z
m-6295 -92 c0 -12 -20 -25 -27 -18 -7 7 6 27 18 27 5 0 9 -4 9 -9z m5874 -56
c-4 -8 -8 -15 -10 -15 -2 0 -4 7 -4 15 0 8 4 15 10 15 5 0 7 -7 4 -15z m-36
-62 c-9 -10 -19 -28 -22 -39 -4 -12 -15 -29 -26 -39 -11 -10 -20 -24 -20 -30
0 -7 -7 -15 -15 -19 -8 -3 -15 -14 -15 -25 0 -11 -6 -24 -13 -28 -7 -4 -24
-26 -38 -48 -15 -22 -42 -58 -62 -80 -30 -35 -36 -38 -51 -26 -20 17 -21 51
-1 51 9 0 29 15 46 33 17 17 44 46 60 63 16 17 29 36 29 41 0 6 16 28 35 49
19 21 35 42 35 47 0 12 63 78 69 72 2 -3 -3 -13 -11 -22z m797 -33 c3 -5 -1
-10 -9 -10 -9 0 -16 5 -16 10 0 6 4 10 9 10 6 0 13 -4 16 -10z m-5 -50 c0 -11
-4 -20 -10 -20 -5 0 -10 9 -10 20 0 11 5 20 10 20 6 0 10 -9 10 -20z m-40
-108 c0 -16 -11 -42 -25 -58 -14 -16 -25 -35 -25 -41 0 -30 -29 -11 -36 22 -3
19 -10 38 -15 41 -23 14 -7 34 31 40 22 4 40 10 40 15 0 5 7 9 15 9 10 0 15
-10 15 -28z m-6320 -67 c8 -1 31 -5 50 -10 35 -9 45 -11 67 -13 6 -1 11 -10
10 -21 -1 -13 -14 -22 -49 -31 -43 -11 -48 -15 -48 -40 0 -22 -5 -29 -22 -32
-18 -2 -24 -12 -29 -41 -3 -22 -2 -40 4 -44 6 -3 1 -10 -11 -14 -29 -11 -31
-73 -3 -88 10 -6 21 -8 24 -5 3 3 12 -16 19 -43 11 -38 14 -161 13 -588 0
-297 -4 -546 -8 -553 -7 -10 -12 -10 -22 -2 -16 13 -24 -3 -17 -38 3 -14 10
-21 18 -18 7 3 16 0 20 -6 4 -7 3 -8 -4 -4 -8 5 -12 -1 -12 -16 0 -19 2 -20
11 -8 8 11 9 2 4 -35 -4 -27 -8 -84 -10 -125 -6 -132 -16 -190 -30 -190 -18 0
-33 72 -16 78 6 2 11 13 11 23 0 11 -4 17 -10 14 -5 -3 -10 3 -10 14 0 11 -7
24 -17 29 -21 12 -10 42 17 42 18 0 25 11 21 33 -1 5 3 6 9 2 14 -9 13 8 -2
23 -9 9 -14 7 -23 -5 -11 -15 -14 -14 -35 5 -27 25 -37 27 -42 10 -7 -20 -29
2 -25 25 5 29 35 96 36 80 1 -7 7 -13 15 -13 11 0 13 17 9 90 -3 53 -1 90 5
90 15 0 40 -33 44 -60 2 -17 8 -4 19 42 12 51 14 81 7 120 -12 68 -11 182 2
186 6 2 10 29 9 60 0 50 -2 54 -11 32 l-11 -25 -7 25 -8 25 -1 -27 c-1 -15 -5
-29 -10 -32 -14 -9 -22 40 -21 113 1 36 -1 73 -4 81 -3 8 -8 34 -10 57 -2 24
-9 49 -15 57 -9 11 -9 15 1 20 11 5 11 7 0 12 -10 5 -9 9 3 18 14 10 17 34 17
146 1 86 -4 152 -12 182 -12 42 -12 49 3 65 10 12 13 24 8 32 -6 10 -12 3 -21
-23 -8 -25 -17 -36 -26 -32 -15 6 -17 -4 -14 -69 1 -22 6 -41 11 -43 12 -5 12
-22 0 -22 -12 0 -19 22 -26 93 -6 48 -4 57 9 57 16 0 23 52 18 138 -1 18 7 48
18 67 11 20 20 46 20 59 0 13 7 29 15 36 8 7 15 21 15 32 0 16 4 18 23 12 12
-4 29 -8 37 -9z m-885 -45 c49 0 62 -8 66 -40 3 -21 9 -25 37 -25 21 0 32 -5
33 -15 3 -31 5 -36 27 -58 39 -39 26 -57 -41 -57 -31 0 -57 -3 -57 -8 0 -4 -4
-5 -10 -2 -5 3 -10 17 -10 31 0 17 4 23 12 18 7 -4 8 -3 4 5 -4 7 -17 11 -29
9 -17 -2 -23 3 -27 26 -4 25 -13 31 -65 47 -33 11 -69 17 -80 14 -31 -7 -52
11 -39 32 6 10 15 17 20 17 5 -1 17 4 27 11 13 9 29 10 55 4 20 -5 55 -9 77
-9z m7195 -88 c0 -64 -2 -70 -26 -83 -23 -12 -27 -12 -40 6 -19 26 -18 34 10
46 18 9 26 22 31 55 10 67 25 52 25 -24z m-1036 -5 c-7 -21 -8 -20 -14 8 -8
36 -1 54 12 31 5 -9 6 -26 2 -39z m-24 -17 c0 -6 -9 -20 -20 -32 l-20 -22 0
25 c0 14 3 29 7 32 10 11 33 8 33 -3z m-5140 -41 c0 -12 5 -19 12 -17 16 6 41
-19 34 -31 -8 -12 -56 10 -56 26 0 6 -3 18 -6 27 -3 9 -1 16 5 16 6 0 11 -9
11 -21z m5060 -14 c-7 -8 -16 -15 -21 -15 -13 0 -11 24 3 38 18 18 35 -3 18
-23z m-6100 -5 c0 -13 -7 -20 -20 -20 -13 0 -20 7 -20 20 0 13 7 20 20 20 13
0 20 -7 20 -20z m647 -2 c-3 -8 -6 -5 -6 6 -1 11 2 17 5 13 3 -3 4 -12 1 -19z
m6168 -15 c9 -73 15 -204 10 -213 -3 -5 -20 7 -38 27 -18 20 -56 52 -85 70
-52 34 -52 34 -35 57 10 13 34 34 53 47 19 13 37 27 40 30 5 7 43 17 48 13 2
-1 5 -15 7 -31z m-6760 -48 c0 -10 -5 -20 -11 -22 -13 -4 -27 24 -18 38 9 15
29 4 29 -16z m1075 -6 c0 -10 -4 -19 -10 -19 -5 0 -10 12 -10 26 0 14 4 23 10
19 6 -3 10 -15 10 -26z m-865 -19 c-4 -14 -2 -20 9 -21 9 -1 21 -2 27 -3 15
-1 27 -32 28 -68 1 -29 -38 -76 -67 -81 -9 -1 -22 -6 -29 -10 -16 -10 -41 2
-48 23 -3 9 -21 34 -40 53 -42 44 -47 70 -10 61 16 -4 25 -2 25 6 0 20 27 40
54 40 14 0 28 5 31 10 11 18 26 10 20 -10z m6371 6 c8 -21 -22 -74 -76 -133
-27 -30 -55 -73 -66 -105 -19 -52 -20 -53 -119 -105 -55 -28 -109 -52 -120
-52 -11 -1 -28 -10 -38 -21 -9 -11 -23 -20 -31 -20 -7 0 -17 -10 -21 -22 -4
-16 -8 -19 -12 -9 -3 7 4 23 16 35 11 11 32 35 46 53 14 18 36 35 48 39 12 4
38 21 58 39 20 18 46 36 56 39 19 6 28 36 11 36 -4 0 -8 5 -8 10 0 14 27 12
33 -2 7 -17 25 7 33 44 4 16 29 46 64 75 32 26 67 63 77 81 18 34 40 42 49 18z
m-5131 -26 c-7 -11 24 -22 37 -13 6 3 8 1 4 -5 -4 -7 8 -9 39 -7 39 3 45 1 45
-15 0 -14 -5 -18 -17 -14 -11 4 -14 3 -7 -3 6 -4 13 -16 17 -26 4 -10 11 -16
16 -12 5 3 12 2 15 -3 7 -11 -80 -9 -91 2 -5 5 -3 6 5 2 10 -6 13 -1 10 20 -3
25 -8 29 -36 32 -19 2 -48 12 -65 23 -29 17 -30 19 -9 19 12 0 22 5 22 11 0 5
5 7 10 4 6 -4 8 -10 5 -15z m-1682 -103 c-9 -158 -7 -199 15 -302 57 -264 104
-407 203 -609 22 -43 39 -86 40 -95 0 -9 13 -41 29 -71 72 -138 102 -205 140
-311 22 -63 47 -127 54 -144 17 -36 45 -142 55 -210 5 -27 9 -45 10 -40 1 6
10 -6 21 -25 21 -38 27 -134 9 -145 -6 -4 -12 -5 -15 -3 -3 4 -12 69 -13 106
-1 6 -5 12 -10 12 -4 0 -11 -27 -15 -60 -7 -60 -22 -80 -28 -38 -2 16 -9 22
-21 20 -9 -2 -20 4 -23 13 -6 14 -8 14 -19 -2 -11 -14 -16 -15 -28 -5 -20 17
-24 7 -25 -51 0 -45 1 -47 27 -47 39 0 51 -17 51 -73 0 -40 -3 -48 -15 -43
-10 4 -15 -1 -15 -14 0 -13 7 -20 20 -20 24 0 43 -34 35 -61 -5 -15 -2 -22 14
-26 23 -6 30 -48 9 -56 -10 -4 -10 -7 0 -18 14 -16 15 -38 2 -59 -9 -13 -11
-13 -20 0 -13 20 -13 80 0 80 6 0 10 6 10 14 0 18 -30 30 -43 17 -15 -15 -56
36 -63 78 -4 20 -11 45 -17 56 -6 11 -13 34 -17 50 -4 17 -12 29 -20 27 -7 -2
-10 3 -7 12 4 10 -2 20 -13 26 -11 6 -26 23 -33 38 -28 55 -67 180 -64 203 2
12 -5 46 -15 73 -11 28 -21 59 -23 68 -2 10 -10 32 -19 50 -8 18 -18 56 -21
85 -4 29 -16 85 -27 125 -12 42 -21 109 -22 158 -1 85 -7 112 -52 246 -13 39
-24 87 -24 107 0 20 -9 60 -20 89 -21 58 -26 132 -15 217 5 37 4 55 -4 61 -8
5 -13 63 -16 184 -2 102 -8 183 -14 190 -13 16 -11 174 2 201 14 27 29 36 43
24 9 -7 11 -36 7 -102z m679 98 c0 -5 -5 -11 -11 -13 -6 -2 -11 4 -11 13 0 9
5 15 11 13 6 -2 11 -8 11 -13z m8588 -64 c0 -79 -8 -111 -21 -89 -10 15 -12
102 -3 136 12 44 24 21 24 -47z m-7909 37 c7 -13 13 -32 14 -43 1 -11 3 -24 5
-30 1 -5 2 -21 1 -35 l-1 -24 -21 20 c-34 34 -48 134 -19 134 5 0 15 -10 21
-22z m8017 -11 c2 -12 -3 -17 -17 -17 -15 0 -21 6 -21 21 0 25 33 22 38 -4z
m-8658 -65 c0 -13 -12 -22 -22 -16 -10 6 -1 24 13 24 5 0 9 -4 9 -8z m1212 -3
c15 -8 22 -8 28 0 5 9 10 8 20 -4 7 -8 20 -15 29 -15 9 0 21 -4 27 -9 5 -5 35
-12 68 -15 65 -6 88 -21 113 -74 13 -27 14 -38 5 -53 -7 -11 -8 -20 -2 -24 6
-4 6 -14 -2 -28 -7 -12 -11 -48 -9 -79 1 -33 -2 -58 -7 -58 -6 0 -8 9 -5 20 3
10 -2 26 -10 35 -21 20 -27 19 -27 -5 0 -12 -10 -24 -24 -30 -13 -5 -31 -18
-39 -30 -14 -21 -16 -21 -20 -4 -2 11 -2 2 0 -19 5 -39 -12 -97 -28 -97 -5 0
-9 -16 -9 -35 0 -22 -6 -38 -15 -41 -8 -4 -15 -13 -15 -21 0 -8 -5 -11 -10 -8
-6 4 -17 1 -25 -5 -12 -10 -15 -9 -15 2 0 11 -7 14 -25 10 -33 -6 -33 17 0 56
19 23 22 31 11 35 -16 6 -12 100 4 105 23 8 7 22 -25 22 -26 0 -33 -3 -29 -15
5 -12 -16 -45 -29 -45 -6 0 -19 183 -17 258 1 55 22 132 35 132 3 0 9 -10 14
-22 6 -18 9 -19 14 -5 4 10 -2 24 -14 36 -34 31 -10 53 33 30z m868 1 c0 -5
-7 -10 -16 -10 -8 0 -12 5 -9 10 3 6 10 10 16 10 5 0 9 -4 9 -10z m-2250 -51
c0 -17 -30 -49 -30 -33 0 5 -7 0 -15 -10 -20 -26 -19 -15 2 45 16 44 19 48 30
32 7 -9 13 -24 13 -34z m8821 -40 c-13 -11 -18 -19 -12 -19 6 0 11 -10 11 -21
0 -32 -26 -7 -34 32 -7 35 2 81 14 74 5 -3 12 0 16 7 6 9 11 2 18 -21 9 -30 7
-36 -13 -52z m-7288 64 c-7 -2 -19 -2 -25 0 -7 3 -2 5 12 5 14 0 19 -2 13 -5z
m-1782 -54 c48 -40 99 -126 99 -169 0 -11 4 -28 9 -38 17 -32 27 -61 29 -94 1
-9 11 -20 22 -23 14 -5 20 -15 20 -38 1 -42 24 -127 37 -135 5 -4 12 -23 16
-42 8 -54 28 -95 75 -153 12 -16 22 -37 22 -47 0 -10 5 -22 11 -26 6 -3 8 -17
5 -30 -4 -14 -2 -24 4 -24 5 0 10 -7 10 -16 0 -8 6 -22 14 -30 8 -8 12 -23 9
-35 -4 -15 -2 -20 5 -15 11 7 18 -8 27 -61 3 -17 14 -52 25 -78 23 -54 39
-142 20 -112 -6 9 -18 17 -25 17 -8 0 -15 7 -15 15 0 8 -12 40 -26 72 -15 32
-29 77 -32 101 -3 27 -10 42 -19 42 -8 0 -12 4 -9 8 3 5 -10 40 -29 78 -19 38
-35 83 -35 100 0 17 -6 37 -14 43 -8 7 -18 25 -21 41 -3 15 -15 36 -26 46 -10
9 -19 25 -19 35 0 10 -4 20 -8 23 -5 3 -14 31 -21 62 -9 41 -23 67 -47 92 -19
19 -34 43 -34 52 0 22 -39 110 -56 127 -19 20 -53 117 -52 151 1 17 -6 42 -15
56 -17 26 -22 46 -11 46 3 0 28 -18 55 -41z m1116 -69 c4 -32 11 -50 19 -50
16 0 37 -36 29 -49 -3 -5 10 -40 29 -78 23 -46 33 -77 29 -94 -3 -15 0 -30 6
-33 6 -4 11 -28 11 -54 0 -26 4 -53 9 -60 4 -7 5 -32 0 -55 -4 -24 -3 -43 2
-45 15 -6 10 -22 -6 -22 -8 0 -15 -9 -15 -20 0 -11 7 -20 15 -20 19 0 39 -48
27 -64 -14 -17 -23 -48 -13 -42 19 12 20 -49 0 -76 -10 -15 -19 -34 -19 -43 0
-8 -9 -15 -19 -15 -11 0 -23 -5 -26 -10 -4 -6 -10 -8 -15 -5 -12 8 -23 -46
-11 -58 8 -8 11 -2 11 18 1 49 17 8 23 -59 6 -64 13 -78 27 -56 27 43 34 49
47 38 7 -6 13 -14 13 -18 0 -14 -38 -50 -54 -50 -18 0 -19 -4 -10 -37 4 -13
13 -23 21 -23 13 0 13 -3 2 -16 -10 -13 -10 -17 1 -24 11 -7 11 -11 1 -24 -8
-9 -21 -16 -31 -16 -15 0 -16 -6 -10 -39 5 -31 4 -41 -8 -46 -11 -4 -13 -15
-8 -49 4 -27 3 -47 -4 -51 -6 -4 -10 7 -10 29 0 27 -4 36 -16 36 -13 0 -15 -7
-11 -30 4 -16 2 -32 -4 -36 -16 -9 -39 28 -31 51 3 11 7 70 8 130 1 61 7 152
15 203 10 72 10 106 1 155 -6 34 -12 118 -12 187 0 69 -2 175 -5 235 -3 61 -5
118 -5 128 0 10 -4 15 -10 12 -6 -4 -10 10 -10 34 0 51 2 57 16 53 12 -2 26
43 16 53 -3 3 -13 -2 -23 -11 -16 -14 -18 -14 -23 4 -4 11 -6 37 -5 58 1 22
-1 54 -4 72 -3 19 -3 40 0 48 10 26 34 -13 40 -66z m7861 -4 c12 -24 22 -59
22 -79 0 -29 -5 -38 -29 -50 -25 -12 -29 -12 -38 2 -9 14 -14 14 -33 3 -16
-10 -25 -11 -33 -3 -8 8 -8 11 0 11 6 0 16 14 22 30 5 17 6 30 2 30 -5 0 -8
10 -7 23 1 13 7 21 16 20 9 -2 21 10 28 27 8 17 17 30 21 30 4 0 17 -20 29
-44z m-8664 25 c3 -4 3 -11 0 -14 -8 -8 -34 3 -34 14 0 11 27 12 34 0z m-144
-46 c0 -8 -7 -15 -15 -15 -26 0 -18 20 13 29 1 1 2 -6 2 -14z m272 -26 c18 -7
31 -22 37 -42 5 -18 23 -70 41 -117 32 -89 40 -161 19 -186 -10 -12 -8 -17 7
-29 10 -8 24 -13 30 -10 12 4 28 -51 19 -66 -3 -4 -21 -6 -40 -4 -19 3 -37 0
-40 -6 -12 -19 -35 12 -35 47 0 24 5 34 15 34 8 0 15 7 15 16 0 11 -6 15 -20
11 -30 -8 -47 19 -26 41 16 19 21 53 10 65 -4 3 -15 2 -25 -4 -13 -6 -26 -6
-39 1 -17 9 -20 17 -14 45 5 28 2 36 -20 50 -14 10 -26 25 -26 35 0 11 -12 22
-31 29 -28 10 -30 14 -24 38 8 34 23 53 41 53 8 0 14 9 14 20 0 18 2 18 33 4
17 -8 44 -19 59 -25z m1528 27 c0 -3 -4 -8 -10 -11 -5 -3 -10 -1 -10 4 0 6 5
11 10 11 6 0 10 -2 10 -4z m-1753 -143 c-11 -10 -27 8 -27 30 l0 21 16 -22 c9
-13 14 -26 11 -29z m8783 -3 c0 -5 -4 -10 -10 -10 -5 0 -10 5 -10 10 0 6 5 10
10 10 6 0 10 -4 10 -10z m-8725 -19 c10 -18 -17 -23 -33 -7 -15 15 -15 16 5
16 12 0 24 -4 28 -9z m6575 -41 c0 -5 -5 -10 -11 -10 -5 0 -7 5 -4 10 3 6 8
10 11 10 2 0 4 -4 4 -10z m1350 -14 c0 -2 -3 -11 -6 -20 -7 -18 -34 -22 -34
-5 0 5 -4 7 -10 4 -5 -3 -10 1 -10 9 0 11 9 16 30 16 17 0 30 -2 30 -4z m-313
-20 c4 -8 17 -14 27 -13 32 3 28 -18 -6 -31 -30 -11 -35 -10 -51 9 -13 17 -15
25 -6 35 15 18 26 18 36 0z m247 -46 c0 -19 -4 -43 -8 -52 -5 -11 -1 -22 12
-34 17 -14 18 -19 7 -31 -20 -20 -31 -16 -44 15 -14 33 -24 120 -15 134 3 5
16 8 27 6 18 -2 22 -9 21 -38z m-2194 20 c0 -5 -8 -10 -17 -10 -15 0 -16 2 -3
10 19 12 20 12 20 0z m2280 -55 c14 -8 19 -14 13 -15 -7 0 -13 -5 -13 -11 0
-12 -29 -38 -42 -39 -10 0 -11 64 -1 73 9 9 14 8 43 -8z m-4068 -47 c-7 -7
-12 -8 -12 -2 0 14 12 26 19 19 2 -3 -1 -11 -7 -17z m4168 -13 c0 -13 5 -27
10 -30 6 -4 7 -12 3 -18 -4 -7 -7 -21 -8 -32 0 -16 -6 -19 -30 -17 -37 4 -41
8 -26 26 7 8 10 19 7 24 -3 5 1 18 9 28 8 10 15 27 15 37 0 27 20 10 20 -18z
m-2657 18 c9 -9 -12 -33 -29 -33 -8 0 -14 9 -14 20 0 19 28 28 43 13z m-76
-48 c0 -9 -6 -14 -13 -11 -7 3 -15 -2 -18 -10 -6 -16 -66 -20 -66 -4 0 6 5 10
11 10 6 0 17 7 25 15 20 20 61 20 61 0z m2312 11 c-11 -9 -120 -16 -114 -6 3
5 31 10 62 10 31 0 54 -2 52 -4z m-59 -20 c0 -3 -4 -8 -10 -11 -5 -3 -10 -1
-10 4 0 6 5 11 10 11 6 0 10 -2 10 -4z m367 -11 c10 -10 12 -20 6 -28 -5 -7
-10 -25 -11 -41 -3 -46 -7 -40 -18 24 -10 61 -5 72 23 45z m-6613 -21 c23 -9
20 -41 -4 -47 -24 -6 -31 3 -23 31 6 25 5 24 27 16z m3889 0 c8 -9 -15 -44
-30 -44 -6 0 -15 -10 -19 -22 -4 -13 -12 -26 -18 -31 -8 -5 -5 -12 7 -21 17
-13 16 -14 -7 -12 -15 0 -26 6 -26 13 0 6 -6 13 -12 16 -10 4 -10 7 -1 18 9 9
10 16 2 26 -9 10 -7 14 7 20 11 3 21 9 24 13 5 6 51 28 61 29 3 1 8 -2 12 -5z
m202 -46 c4 -18 16 -43 27 -54 16 -18 18 -30 13 -68 -7 -44 -6 -49 25 -76 18
-16 37 -27 41 -24 5 3 9 1 9 -5 0 -5 -4 -13 -10 -16 -16 -10 -11 -64 8 -83 31
-34 41 -60 48 -129 3 -37 14 -81 23 -98 21 -38 19 -146 -3 -197 -12 -27 -14
-53 -9 -98 5 -50 3 -64 -12 -80 -13 -14 -19 -39 -20 -86 -2 -51 -7 -68 -22
-79 -11 -7 -20 -27 -21 -47 -1 -18 -16 -55 -33 -83 -17 -27 -33 -65 -36 -85
-3 -19 -14 -53 -24 -76 -10 -22 -19 -46 -19 -53 0 -7 -13 -30 -28 -50 -16 -20
-39 -63 -52 -96 -13 -33 -29 -64 -35 -70 -7 -5 -31 -42 -55 -82 -44 -75 -91
-128 -89 -102 0 8 11 32 24 54 41 70 175 339 175 351 0 7 14 41 32 75 36 74
88 210 96 254 3 17 11 39 17 50 23 36 49 182 62 344 11 133 -34 356 -93 466
-41 76 -71 197 -65 263 2 24 20 11 26 -20z m-5079 -16 c14 -10 26 -40 29 -79
3 -30 2 -31 -30 -26 -26 4 -35 1 -49 -18 l-16 -23 -21 20 c-17 18 -19 27 -12
70 8 44 11 49 35 49 15 1 30 4 34 8 9 9 16 9 30 -1z m1934 -12 c0 -23 12 -25
39 -9 27 18 83 3 105 -28 17 -23 20 -45 14 -98 -1 -8 -16 -33 -35 -54 -39 -46
-40 -54 -11 -73 19 -13 22 -23 21 -73 -1 -33 -7 -61 -14 -65 -7 -5 -9 -15 -4
-26 5 -11 7 -23 5 -29 -1 -5 -9 -39 -16 -75 -8 -36 -17 -78 -21 -95 -4 -16 -6
-41 -5 -55 5 -66 0 -269 -8 -305 -15 -70 -32 -276 -34 -418 -2 -104 -5 -140
-16 -147 -7 -4 -15 -19 -16 -32 -7 -71 -18 -108 -30 -108 -11 0 -13 11 -8 48
3 26 5 61 3 77 -1 17 -2 81 -3 143 -1 98 1 115 17 123 21 12 22 32 2 49 -12
10 -15 28 -11 79 2 36 5 68 6 71 1 3 2 8 2 11 -1 3 -2 26 -3 50 -1 24 -6 49
-10 54 -11 16 5 160 18 158 6 -1 13 11 15 27 3 17 1 30 -4 30 -4 0 -11 18 -14
41 -4 22 -12 46 -19 53 -7 7 -15 24 -17 37 -2 18 -10 25 -33 27 -16 2 -35 8
-42 13 -7 7 -14 6 -18 -2 -6 -8 -9 -8 -15 0 -5 9 -14 9 -36 -1 -16 -7 -32 -16
-35 -21 -3 -5 -10 -9 -15 -10 -5 -1 -8 -12 -6 -24 3 -22 -6 -28 -36 -24 -8 1
-4 -7 7 -18 12 -12 21 -27 21 -33 0 -32 -22 -87 -36 -92 -12 -4 -15 -14 -11
-34 3 -15 0 -36 -5 -46 -8 -15 -8 -21 1 -24 6 -2 11 -11 11 -19 0 -9 6 -13 15
-9 9 3 15 0 15 -9 0 -9 -9 -15 -21 -15 -16 0 -20 -5 -16 -20 3 -11 1 -18 -4
-14 -5 3 -9 -2 -9 -10 0 -9 -9 -16 -20 -16 -20 0 -28 25 -11 32 14 5 -21 158
-36 158 -8 0 -13 15 -14 40 -2 52 -3 57 -11 66 -11 10 1 24 15 18 17 -6 50 62
42 87 -4 10 -2 19 3 19 5 0 13 -17 18 -37 4 -21 9 -31 11 -22 2 10 13 19 24
22 20 5 27 41 9 52 -17 10 -11 39 10 53 12 7 25 10 30 7 6 -4 10 -1 10 4 0 6
9 11 20 11 11 0 20 5 20 10 0 17 26 11 45 -10 10 -11 22 -17 27 -14 6 4 5 9
-2 14 -18 11 6 50 30 50 11 0 20 7 20 15 0 8 8 15 18 15 24 0 65 47 58 66 -3
8 -19 14 -36 14 -16 0 -30 5 -30 10 0 6 5 10 11 10 14 0 2 52 -13 61 -6 4 -8
14 -5 23 4 9 3 15 -1 15 -29 -5 -34 2 -17 21 13 15 14 20 5 20 -11 0 -11 3 -2
12 7 7 12 34 12 61 0 30 4 46 10 42 6 -3 8 -16 5 -28 -3 -12 -1 -29 5 -37 9
-13 12 -13 24 3 8 10 20 15 29 11 16 -6 55 41 43 53 -3 3 -1 12 6 20 6 7 8 16
5 20 -12 12 -102 21 -119 12 -23 -12 -31 4 -18 33 9 18 20 24 51 25 33 2 39 0
39 -17z m5344 -21 c14 -16 31 -29 40 -29 16 0 31 -34 21 -50 -9 -14 -43 -12
-47 2 -3 8 -9 4 -17 -10 -6 -12 -19 -22 -27 -22 -13 0 -15 7 -10 35 5 27 2 44
-13 69 -27 42 -26 44 4 38 14 -2 36 -17 49 -33z m419 16 c-3 -9 2 -22 13 -30
18 -14 17 -14 -8 -15 -38 0 -54 31 -25 47 28 16 27 16 20 -2z m-6796 -73 c-10
-22 -12 -23 -24 -6 -16 22 -17 41 -1 46 23 8 36 -15 25 -40z m6154 -21 c-5 -9
-7 -36 -5 -61 1 -24 -1 -49 -6 -55 -12 -14 -8 -75 5 -75 5 0 4 -5 -3 -12 -7
-7 -12 -22 -12 -34 0 -15 -10 -28 -26 -36 -26 -13 -27 -16 -28 -104 -1 -96
-15 -135 -42 -113 -9 8 -11 34 -7 102 7 136 5 164 -14 193 -10 16 -18 53 -21
93 -2 36 -7 67 -12 69 -4 2 -6 11 -3 21 5 19 84 60 137 71 27 5 32 3 38 -18 4
-14 3 -32 -1 -41z m-1583 19 c11 -25 11 -33 -5 -56 -13 -21 -17 -43 -15 -98 2
-38 5 -73 8 -77 7 -12 -7 -59 -17 -59 -5 0 -9 9 -9 20 0 11 -7 20 -15 20 -21
0 -29 42 -21 120 4 48 2 78 -8 101 -14 32 -13 35 11 50 32 22 56 15 71 -21z
m-123 13 c0 -7 -4 -13 -10 -14 -5 0 -25 -10 -44 -21 -27 -17 -35 -19 -42 -7
-12 19 -11 33 3 47 16 16 93 11 93 -5z m-3435 -44 c0 -18 -2 -19 -15 -9 -8 7
-15 16 -15 21 0 5 7 9 15 9 9 0 15 -9 15 -21z m4250 -19 c-9 -5 -9 -17 1 -48
10 -35 9 -48 -6 -87 -13 -36 -16 -61 -10 -110 4 -43 2 -71 -6 -86 -6 -13 -13
-46 -15 -74 -2 -27 -10 -77 -18 -110 -8 -33 -15 -88 -15 -123 0 -35 -3 -72 -6
-82 -4 -11 -3 -20 2 -20 4 0 9 -44 10 -98 1 -53 3 -119 5 -147 4 -69 -31 -141
-73 -150 -32 -7 -39 -23 -42 -95 -1 -25 -6 -44 -12 -42 -5 1 -9 20 -9 42 l2
39 -29 -14 c-18 -10 -26 -20 -23 -30 4 -8 10 -12 16 -9 5 3 8 -2 7 -12 -4 -29
12 -104 22 -104 5 0 9 6 9 13 0 6 5 4 11 -6 6 -11 8 -30 3 -45 -4 -15 -7 -30
-6 -34 1 -5 -9 -8 -23 -8 -16 0 -25 -6 -25 -15 0 -8 -9 -15 -20 -15 -11 0 -20
5 -20 10 0 6 -9 21 -20 32 -13 15 -17 25 -10 32 13 13 13 116 1 116 -5 0 -13
-9 -16 -20 -3 -11 -15 -25 -25 -30 -17 -9 -21 -6 -26 15 -8 31 2 116 15 124
14 10 23 109 11 131 -6 11 -7 20 -2 20 6 0 12 -10 16 -22 4 -17 8 -20 17 -11
7 7 9 28 5 60 -4 26 -9 79 -12 116 -5 63 -3 72 21 107 15 22 36 42 47 46 15 4
17 9 9 17 -14 14 -14 47 -1 47 6 0 10 10 10 23 0 18 -2 19 -10 7 -7 -10 -8 -4
-4 21 3 19 2 51 -4 71 -12 43 20 238 38 238 13 0 31 65 24 83 -4 11 0 19 10
23 10 4 16 18 16 40 0 19 5 34 10 34 11 0 30 42 34 75 3 31 15 45 38 45 28 0
78 31 79 50 1 10 3 9 6 -4 3 -10 0 -22 -7 -26z m-6088 -22 c15 -17 28 -42 28
-54 0 -12 3 -30 6 -38 5 -12 2 -15 -10 -10 -9 3 -13 11 -9 17 4 6 0 8 -9 4 -9
-3 -20 -1 -26 5 -7 7 -20 5 -42 -6 -18 -8 -36 -13 -41 -10 -17 10 -8 49 16 73
14 13 25 27 25 32 0 6 9 5 20 -1 12 -6 20 -7 20 -1 0 5 -6 12 -12 14 -7 3 -9
6 -4 6 5 1 22 -13 38 -31z m718 -23 c27 -33 -40 -55 -73 -24 -22 20 -16 25 54
38 4 0 12 -6 19 -14z m6333 8 c2 -5 7 -20 11 -35 4 -20 3 -28 -7 -28 -22 0
-34 20 -29 46 4 23 17 32 25 17z m-6233 -23 c0 -5 -18 -10 -40 -10 -22 0 -40
5 -40 10 0 6 18 10 40 10 22 0 40 -4 40 -10z m3870 -10 c0 -5 -7 -10 -16 -10
-8 0 -12 5 -9 10 3 6 10 10 16 10 5 0 9 -4 9 -10z m-2670 -15 c0 -8 -4 -15 -9
-15 -13 0 -22 16 -14 24 11 11 23 6 23 -9z m-1312 -17 c13 -13 16 -48 4 -48
-14 0 -32 23 -32 42 0 21 11 23 28 6z m112 -16 c0 -23 -34 -52 -50 -42 -8 5
-10 17 -6 34 5 19 13 26 31 26 17 0 25 -6 25 -18z m5410 -27 c0 -8 -4 -15 -10
-15 -5 0 -10 7 -10 15 0 8 5 15 10 15 6 0 10 -7 10 -15z m306 0 c10 -8 14 -15
7 -15 -20 0 -64 -102 -51 -117 5 -7 8 -20 4 -28 -4 -11 -2 -14 6 -9 8 5 9 -6
3 -42 -4 -27 -8 -58 -8 -69 0 -11 -6 -24 -11 -28 -8 -6 -7 -10 2 -14 6 -2 12
-11 12 -19 0 -8 5 -14 10 -14 6 0 10 -10 10 -22 0 -12 -3 -18 -7 -15 -3 4 -12
-1 -18 -10 -15 -20 1 -54 20 -46 16 5 27 -24 19 -49 -4 -12 -1 -18 8 -16 10 2
13 -16 15 -72 1 -41 0 -69 -3 -62 -3 6 -14 12 -24 12 -21 0 -31 30 -24 74 4
30 4 30 -7 -3 -8 -27 -13 -31 -20 -20 -7 11 -9 9 -9 -8 0 -12 5 -25 11 -29 6
-3 9 -14 6 -24 -5 -20 19 -36 25 -18 3 7 12 4 25 -9 17 -17 21 -37 25 -122 4
-85 3 -101 -10 -101 -12 0 -14 12 -9 73 3 39 1 81 -3 92 -7 15 -9 10 -9 -22
-1 -33 -4 -41 -16 -37 -11 5 -15 -2 -15 -26 0 -22 -8 -38 -25 -52 -14 -11 -25
-27 -25 -36 0 -12 -3 -13 -12 -4 -18 18 -27 15 -21 -7 3 -11 15 -21 27 -23 18
-3 21 -10 22 -48 1 -25 2 -47 3 -50 7 -14 11 -62 11 -122 0 -37 4 -70 10 -73
5 -3 10 -19 10 -36 0 -32 16 -40 23 -11 3 9 5 -10 5 -43 0 -44 -2 -53 -8 -35
-8 24 -8 24 -9 3 -1 -13 -7 -23 -14 -23 -9 0 -14 -13 -15 -35 -1 -19 -6 -45
-13 -56 -6 -11 -8 -31 -5 -42 4 -16 -1 -25 -19 -34 -22 -10 -25 -9 -25 8 0 10
5 19 10 19 6 0 10 7 10 16 0 8 -4 13 -9 10 -13 -8 -44 62 -38 85 3 11 1 34 -4
52 -6 18 -10 74 -9 125 1 89 -11 120 -25 65 -4 -18 -9 -23 -14 -15 -12 20 -32
-11 -37 -55 -9 -97 -17 -143 -27 -143 -6 0 -8 20 -5 50 5 47 -4 66 -15 38 -8
-20 4 51 19 112 14 59 12 69 -11 50 -11 -9 -15 -9 -15 -1 0 7 -4 10 -9 6 -31
-19 -43 147 -14 196 19 32 28 36 37 17 3 -9 11 -6 25 11 23 25 28 80 11 112
-14 26 13 209 31 209 13 0 11 47 -2 55 -6 5 -10 44 -9 104 0 53 -2 110 -5 126
-7 38 10 68 25 45 8 -13 10 -13 10 1 0 9 -9 27 -21 40 -11 13 -16 25 -10 27 6
2 11 21 11 43 0 21 5 39 10 39 6 0 10 8 10 18 0 10 11 29 25 42 l26 24 23 -27
c21 -24 22 -32 14 -78 -12 -63 -5 -88 17 -65 9 9 15 33 15 63 0 120 1 124 41
132 3 0 14 -6 25 -14z m-5808 -32 c-19 -44 -28 -49 -28 -16 0 28 9 40 32 42 4
1 2 -11 -4 -26z m1035 5 c3 -12 3 -26 -1 -32 -4 -6 -7 -15 -7 -20 0 -5 -5 -11
-12 -13 -10 -4 -11 14 -4 75 2 20 18 14 24 -10z m-1796 -83 c5 -30 3 -37 -8
-33 -18 6 -34 51 -25 74 10 25 25 6 33 -41z m5303 28 c0 -37 -13 -63 -30 -63
-25 0 -34 51 -12 68 23 17 42 15 42 -5z m-3673 -40 c-3 -10 -5 -2 -5 17 0 19
2 27 5 18 2 -10 2 -26 0 -35z m2503 -1 c0 -27 -25 -5 -28 24 -3 28 -3 28 12 9
8 -11 16 -26 16 -33z m-2440 18 c0 -5 -4 -10 -9 -10 -6 0 -12 -15 -14 -32 -3
-29 -4 -27 -5 10 -2 31 2 42 13 42 8 0 15 -4 15 -10z m3730 -129 c9 -29 10
-51 2 -87 -6 -27 -14 -67 -17 -89 -4 -22 -15 -65 -24 -95 -10 -30 -28 -91 -41
-135 -29 -96 -36 -108 -60 -95 -26 14 -30 55 -9 98 17 35 53 211 68 333 4 40
14 64 31 83 14 14 28 26 31 26 3 0 12 -18 19 -39z m-1542 -22 c1 -8 -7 -24
-18 -36 -11 -12 -20 -27 -20 -33 0 -6 -11 -16 -25 -22 -31 -14 -47 -1 -47 36
0 34 17 54 56 65 38 11 50 9 54 -10z m312 -25 c0 -8 -4 -12 -10 -9 -5 3 -10
13 -10 21 0 8 5 12 10 9 6 -3 10 -13 10 -21z m-185 -35 c12 -19 -4 -60 -23
-57 -11 2 -17 -3 -16 -14 1 -10 -4 -14 -12 -11 -17 6 -17 6 -5 35 5 13 12 31
15 41 6 19 31 23 41 6z m-4133 -97 c6 -15 10 -39 9 -54 -1 -16 3 -28 7 -28 10
0 32 -68 32 -99 0 -28 -24 -23 -26 5 -1 10 -15 57 -31 104 -29 81 -33 117 -12
104 6 -3 15 -18 21 -32z m4370 -47 c2 -19 1 -35 -2 -35 -10 0 -32 59 -25 70
11 17 23 2 27 -35z m-272 17 c0 -17 -25 -32 -52 -32 -27 0 -27 1 -11 20 17 19
63 28 63 12z m220 -2 c0 -5 -4 -10 -10 -10 -5 0 -10 5 -10 10 0 6 5 10 10 10
6 0 10 -4 10 -10z m-145 -100 c3 -5 -1 -10 -9 -10 -9 0 -16 5 -16 10 0 6 4 10
9 10 6 0 13 -4 16 -10z m-2615 -21 c0 -5 -4 -9 -10 -9 -5 0 -10 7 -10 16 0 8
5 12 10 9 6 -3 10 -10 10 -16z m2389 -64 c12 -14 27 -22 32 -19 5 3 9 -2 9
-10 0 -16 -18 -20 -74 -16 -27 2 -28 0 -21 -27 4 -15 8 -45 9 -65 0 -21 3 -38
6 -38 3 0 4 -16 2 -35 -3 -23 1 -40 12 -50 9 -9 16 -13 16 -9 0 5 5 3 12 -4
14 -14 68 -16 68 -2 0 6 -8 10 -17 11 -15 0 -15 2 2 8 25 11 34 6 31 -17 -2
-10 -20 -23 -47 -32 -60 -21 -61 -54 -4 -86 41 -22 58 -56 44 -85 -10 -20 -14
-112 -6 -126 5 -8 -1 -9 -20 -4 -20 5 -29 16 -36 42 -5 19 -13 38 -18 43 -5 6
-9 25 -9 43 0 24 -7 37 -25 49 -13 9 -30 30 -36 48 -6 18 -21 37 -33 42 -11 5
-21 17 -21 26 0 10 -6 23 -13 30 -17 17 -15 59 3 86 21 29 65 151 65 179 0 19
22 42 40 43 3 0 16 -12 29 -25z m397 5 c18 -7 30 -7 39 0 16 14 25 -8 25 -62
0 -54 -23 -178 -28 -154 -2 11 -17 33 -33 50 -16 17 -29 38 -29 47 0 9 -3 19
-7 23 -12 12 -29 70 -25 89 4 19 19 21 58 7z m2930 -110 c16 0 23 -4 18 -11
-9 -16 15 -29 54 -29 25 0 32 -4 32 -19 0 -11 6 -21 13 -24 10 -4 10 -7 0 -18
-7 -7 -13 -28 -13 -46 0 -32 -18 -71 -48 -102 -16 -17 -74 -20 -79 -3 -3 6 2
12 11 12 23 0 20 31 -4 37 -14 4 -20 14 -20 34 0 15 -4 31 -10 34 -5 3 -10 1
-10 -5 0 -6 -4 -8 -10 -5 -13 8 -13 48 1 62 6 6 11 54 12 109 l2 98 13 -62
c12 -56 16 -62 38 -62z m-7162 -32 c8 -33 7 -48 -4 -48 -5 0 -10 7 -10 15 0 8
-4 15 -10 15 -5 0 -10 9 -10 20 0 27 26 25 34 -2z m3991 -48 c-3 -5 -2 -10 3
-10 6 0 8 -9 5 -20 -3 -12 2 -29 12 -39 13 -16 14 -23 5 -41 -7 -13 -17 -19
-27 -16 -8 3 -21 6 -28 6 -20 0 -25 90 -7 113 16 18 48 24 37 7z m-2689 -35
c10 -24 -5 -36 -27 -24 -16 8 -18 13 -8 25 15 18 28 18 35 -1z m2824 -5 c0 -5
-4 -10 -10 -10 -5 0 -10 5 -10 10 0 6 5 10 10 10 6 0 10 -4 10 -10z m-2814
-83 c14 -13 -6 -57 -26 -57 -15 0 -20 7 -20 28 0 16 3 31 6 34 7 7 31 4 40 -5z
m35 -10 c-13 -13 -26 -3 -16 12 3 6 11 8 17 5 6 -4 6 -10 -1 -17z m-1311 4 c0
-6 -4 -13 -10 -16 -5 -3 -10 1 -10 9 0 9 5 16 10 16 6 0 10 -4 10 -9z m6562
-33 c-9 -9 -12 -7 -12 12 0 19 3 21 12 12 9 -9 9 -15 0 -24z m-2411 -33 c7 19
8 19 8 -2 1 -12 5 -23 11 -25 12 -4 32 -68 21 -68 -4 0 -6 -13 -3 -29 3 -23 0
-30 -19 -36 -15 -5 -25 -3 -27 4 -2 6 -10 18 -18 26 -8 7 -10 16 -5 19 5 4 3
20 -6 38 -15 28 -15 32 1 43 9 7 17 21 17 31 1 18 2 17 7 -1 l5 -20 8 20z
m3166 -17 c-3 -8 -6 -5 -6 6 -1 11 2 17 5 13 3 -3 4 -12 1 -19z m-7281 -5 c7
-10 14 -28 14 -40 0 -12 4 -24 9 -27 14 -9 19 -66 6 -66 -13 0 -35 64 -35 104
0 14 -4 26 -10 26 -5 0 -10 5 -10 10 0 15 11 12 26 -7z m741 -45 c-3 -8 -6 -5
-6 6 -1 11 2 17 5 13 3 -3 4 -12 1 -19z m3163 7 c0 -8 -9 -15 -20 -15 -22 0
-27 15 -7 23 21 9 27 7 27 -8z m3107 -47 c-2 -13 -4 -3 -4 22 0 25 2 35 4 23
2 -13 2 -33 0 -45z m273 22 c0 -41 -7 -49 -28 -28 -21 21 -7 68 20 68 4 0 8
-18 8 -40z m-7640 -30 c0 -5 -2 -10 -4 -10 -3 0 -8 5 -11 10 -3 6 -1 10 4 10
6 0 11 -4 11 -10z m4330 -39 c7 -27 17 -41 33 -45 14 -3 28 -20 39 -46 16 -40
16 -41 -9 -70 -25 -30 -43 -38 -43 -20 0 6 7 10 15 10 17 0 18 2 9 24 -3 9
-15 16 -25 16 -11 0 -22 7 -25 15 -4 8 -12 15 -20 15 -8 0 -14 7 -14 15 0 18
-16 20 -23 3 -3 -9 -7 -7 -12 6 -4 10 -4 21 2 25 5 3 20 25 33 49 13 23 25 42
26 42 2 0 8 -18 14 -39z m-4346 12 c5 -13 9 -14 15 -5 10 17 26 -2 33 -39 4
-21 1 -25 -13 -22 -14 4 -16 0 -12 -16 5 -19 1 -21 -46 -21 l-52 0 7 48 c3 26
9 51 12 56 7 13 22 -16 22 -46 0 -16 3 -28 8 -28 4 0 6 20 4 45 -4 45 10 61
22 28z m3106 -68 c0 -16 -45 -21 -54 -6 -8 12 4 21 31 21 14 0 23 -6 23 -15z
m-1555 -24 c3 -5 1 -12 -5 -16 -5 -3 -10 1 -10 9 0 18 6 21 15 7z m2975 -31
c0 -16 -4 -30 -9 -30 -10 0 -22 40 -15 52 11 18 24 6 24 -22z m-4083 -47 c-3
-10 -5 -2 -5 17 0 19 2 27 5 18 2 -10 2 -26 0 -35z m1153 37 c0 -5 -8 -10 -17
-10 -15 0 -16 2 -3 10 19 12 20 12 20 0z m-13 -31 c8 -8 6 -16 -8 -30 -27 -27
-39 -24 -39 11 0 22 5 30 18 30 10 0 23 -5 29 -11z m2878 -9 c3 -5 1 -10 -4
-10 -6 0 -11 5 -11 10 0 6 2 10 4 10 3 0 8 -4 11 -10z m1792 -12 c-3 -8 -6 -5
-6 6 -1 11 2 17 5 13 3 -3 4 -12 1 -19z m-5227 -43 c0 -30 -3 -55 -7 -55 -5 0
-6 25 -5 55 5 71 12 71 12 0z m3220 -21 c0 -8 -4 -14 -10 -14 -5 0 -10 9 -10
21 0 11 5 17 10 14 6 -3 10 -13 10 -21z m312 -6 c-7 -7 -7 -20 0 -39 13 -37 1
-134 -18 -154 -8 -8 -15 -18 -14 -22 0 -14 -23 -9 -30 7 -28 57 -39 120 -20
120 6 0 10 -14 10 -31 0 -16 4 -28 8 -25 4 2 7 22 6 43 -3 43 14 96 27 87 5
-3 9 4 9 15 0 14 5 19 16 14 10 -4 12 -9 6 -15z m-294 -60 c-5 -15 -23 -11
-26 6 -2 11 2 14 13 10 9 -4 14 -11 13 -16z m-4315 0 c22 -24 35 -64 26 -80
-6 -11 -4 -21 6 -32 20 -20 19 -33 -4 -39 -14 -3 -18 -1 -14 9 3 8 -1 14 -11
14 -10 0 -16 9 -16 24 0 14 -5 37 -10 52 -10 24 -6 64 6 64 3 0 11 -6 17 -12z
m6237 8 c0 -11 -19 -15 -25 -6 -3 5 1 10 9 10 9 0 16 -2 16 -4z m83 -21 c15
-14 27 -32 27 -40 0 -21 -13 -18 -28 6 -11 16 -16 18 -28 9 -17 -15 -19 -57
-1 -63 6 -2 10 -7 7 -10 -3 -4 -19 5 -34 18 -16 14 -33 25 -38 25 -4 0 -8 11
-8 25 0 22 3 24 30 19 26 -6 30 -4 30 15 0 27 9 27 43 -4z m-6096 -37 c-3 -8
-6 -5 -6 6 -1 11 2 17 5 13 3 -3 4 -12 1 -19z m-847 -60 c0 -16 -3 -19 -11
-11 -6 6 -8 16 -5 22 11 17 16 13 16 -11z m5740 5 c0 -24 -69 -104 -70 -81 0
9 5 20 11 24 6 3 17 22 25 40 15 36 34 45 34 17z m-2894 -99 c-2 -47 -7 -88
-10 -91 -10 -11 -35 18 -34 40 0 49 23 137 35 137 10 0 12 -20 9 -86z m5294
77 c0 -6 -4 -13 -10 -16 -5 -3 -10 1 -10 9 0 9 5 16 10 16 6 0 10 -4 10 -9z
m-8122 -28 c-10 -2 -18 -11 -18 -19 0 -8 -4 -14 -10 -14 -5 0 -10 9 -10 20 0
15 6 20 28 19 16 -1 20 -3 10 -6z m1409 1 c-3 -3 -12 -4 -19 -1 -8 3 -5 6 6 6
11 1 17 -2 13 -5z m6264 -54 c1 -14 1 -29 0 -34 -1 -4 3 -14 9 -21 16 -20 1
-104 -22 -116 -26 -14 -36 -3 -15 18 15 15 15 19 1 34 -13 14 -13 20 -2 38 10
16 10 23 0 33 -6 6 -12 27 -12 44 0 27 4 32 20 31 14 -1 20 -9 21 -27z m-6181
-20 c-8 -5 -17 -7 -19 -4 -3 3 1 9 9 14 8 5 17 7 19 4 3 -3 -1 -9 -9 -14z
m-80 -42 c0 -5 -4 -8 -10 -8 -5 0 -10 10 -10 23 0 18 2 19 10 7 5 -8 10 -18
10 -22z m3750 6 c0 -14 -4 -23 -10 -19 -5 3 -10 15 -10 26 0 10 5 19 10 19 6
0 10 -12 10 -26z m2320 -39 c0 -9 -6 -12 -15 -9 -8 4 -15 10 -15 15 0 5 7 9
15 9 8 0 15 -7 15 -15z m-6100 -15 c0 -5 -2 -10 -4 -10 -3 0 -8 5 -11 10 -3 6
-1 10 4 10 6 0 11 -4 11 -10z m6060 6 c0 -11 -19 -15 -25 -6 -3 5 1 10 9 10 9
0 16 -2 16 -4z m843 -36 c3 -13 0 -20 -9 -20 -8 0 -14 9 -14 20 0 11 4 20 9
20 5 0 11 -9 14 -20z m-6883 -10 c0 -5 -4 -10 -10 -10 -5 0 -10 5 -10 10 0 6
5 10 10 10 6 0 10 -4 10 -10z m70 0 c0 -5 -5 -10 -11 -10 -5 0 -7 5 -4 10 3 6
8 10 11 10 2 0 4 -4 4 -10z"/>
<path d="M3530 8885 c0 -8 2 -15 4 -15 2 0 6 7 10 15 3 8 1 15 -4 15 -6 0 -10
-7 -10 -15z"/>
<path d="M3833 8764 c-3 -8 -1 -20 6 -27 8 -8 11 -4 11 16 0 30 -7 35 -17 11z"/>
<path d="M3850 8685 c0 -22 3 -24 18 -16 10 5 24 17 32 25 11 14 8 16 -19 16
-27 0 -31 -4 -31 -25z"/>
<path d="M3803 8620 c12 -33 30 -38 53 -16 27 28 17 46 -25 46 l-39 0 11 -30z"/>
<path d="M3640 8610 c0 -5 5 -10 10 -10 6 0 10 5 10 10 0 6 -4 10 -10 10 -5 0
-10 -4 -10 -10z"/>
<path d="M3764 8579 c3 -16 44 -31 51 -19 4 6 -5 10 -19 10 -13 0 -27 5 -29
10 -3 6 -4 5 -3 -1z"/>
<path d="M7356 7391 c-4 -7 -5 -15 -2 -18 9 -9 19 4 14 18 -4 11 -6 11 -12 0z"/>
<path d="M6810 7343 c-14 -9 -27 -20 -30 -24 -8 -11 -84 -49 -98 -49 -7 0 -72
-29 -145 -64 -107 -51 -143 -74 -189 -121 -42 -41 -58 -65 -58 -84 0 -15 -9
-37 -20 -49 -11 -12 -20 -26 -20 -32 0 -5 -6 -10 -14 -10 -8 0 -24 -13 -34
-28 -15 -21 -18 -32 -10 -46 6 -10 7 -37 3 -62 -3 -24 -3 -54 1 -66 l6 -21 19
24 c16 20 20 22 29 9 5 -8 10 -22 10 -31 0 -23 23 -40 51 -37 25 3 27 -5 14
-48 -4 -13 1 -29 13 -44 19 -24 24 -24 168 -24 142 -1 152 1 219 28 39 16 79
36 91 45 19 15 13 16 -94 16 -101 0 -115 2 -128 19 -12 17 -11 24 11 63 14 23
25 45 25 49 -2 14 197 113 240 119 56 9 114 27 131 42 8 7 22 13 31 13 21 0
52 36 45 54 -3 8 -25 21 -49 28 -64 19 -294 15 -410 -7 -27 -5 -38 -4 -38 4 0
7 -4 9 -10 6 -5 -3 -10 -4 -10 0 0 8 68 67 102 87 15 10 28 25 28 34 0 25 100
116 119 108 9 -3 30 -7 46 -8 17 -1 46 -11 65 -21 48 -26 102 -45 112 -39 4 3
8 11 8 19 0 7 5 15 10 17 6 2 -2 28 -18 58 -19 38 -39 60 -63 72 -44 23 -127
23 -159 1z m-60 -363 c0 -5 -7 -6 -17 -3 -11 4 -14 3 -9 -5 5 -8 -2 -12 -21
-12 -27 1 -27 1 -9 15 22 17 56 20 56 5z"/>
<path d="M3430 7260 c0 -5 5 -10 10 -10 6 0 10 5 10 10 0 6 -4 10 -10 10 -5 0
-10 -4 -10 -10z"/>
<path d="M6813 7188 c-34 -16 -30 -42 5 -33 33 8 46 20 38 34 -9 13 -14 13
-43 -1z"/>
<path d="M7050 7176 c0 -9 5 -16 10 -16 6 0 10 4 10 9 0 6 -4 13 -10 16 -5 3
-10 -1 -10 -9z"/>
<path d="M7376 7145 c-3 -8 -1 -15 4 -15 6 0 10 7 10 15 0 8 -2 15 -4 15 -2 0
-6 -7 -10 -15z"/>
<path d="M3632 6413 c-8 -15 -9 -24 -1 -28 15 -10 21 0 17 27 l-3 23 -13 -22z"/>
<path d="M4730 6420 c0 -5 7 -10 15 -10 8 0 15 5 15 10 0 6 -7 10 -15 10 -8 0
-15 -4 -15 -10z"/>
<path d="M3842 6385 c0 -16 2 -22 5 -12 2 9 2 23 0 30 -3 6 -5 -1 -5 -18z"/>
<path d="M5225 6199 c-27 -10 -60 -19 -72 -19 -12 0 -48 -12 -80 -27 -42 -19
-76 -27 -122 -28 -53 -1 -67 -5 -82 -24 -34 -42 -26 -44 110 -39 104 5 138 10
174 27 24 11 48 21 54 21 17 0 64 41 58 51 -4 5 -1 9 5 9 17 0 42 28 35 40 -8
13 -21 12 -80 -11z"/>
<path d="M6670 6113 c-61 -8 -71 -29 -49 -106 7 -27 20 -44 41 -55 17 -10 58
-41 92 -69 33 -29 66 -53 72 -53 6 0 19 -9 29 -20 10 -11 26 -22 37 -26 11 -3
47 -25 81 -50 34 -24 79 -53 100 -64 38 -21 41 -28 31 -67 -4 -15 -14 -23 -28
-23 -25 0 -42 -24 -52 -75 -7 -37 -71 -110 -151 -172 -15 -12 -39 -31 -52 -41
-24 -18 -59 -125 -60 -182 -1 -16 -9 -29 -23 -35 -18 -8 -24 -20 -26 -52 -3
-48 -10 -51 -53 -26 -26 16 -31 16 -39 3 -15 -24 -12 -97 4 -103 24 -9 133 78
147 117 8 22 20 36 33 38 14 2 24 15 31 39 5 19 23 50 38 69 15 18 36 49 47
70 10 20 26 42 34 49 9 8 16 19 16 27 0 7 9 18 19 23 25 14 38 -2 47 -56 3
-23 13 -44 20 -47 8 -3 14 -11 14 -18 0 -7 7 -25 14 -40 8 -16 18 -47 21 -71
9 -59 55 -141 81 -145 14 -2 24 6 35 30 11 26 20 33 42 33 19 -1 27 4 27 17 0
10 -4 18 -9 18 -5 0 -7 10 -3 22 3 12 7 17 10 10 2 -7 8 -10 13 -6 5 3 9 47 9
98 0 50 4 96 8 101 4 6 14 28 21 50 17 54 33 88 49 100 7 6 17 47 21 95 8 72
6 94 -10 147 -13 40 -25 63 -34 63 -18 0 -20 27 -2 33 7 2 0 15 -20 33 -18 16
-33 34 -33 41 0 7 -7 13 -15 13 -11 0 -12 5 -5 25 10 27 9 29 -40 38 -34 7
-114 36 -177 64 -28 13 -55 23 -59 23 -7 0 -63 26 -188 87 -66 32 -82 35 -156
26z"/>
<path d="M4791 6075 c-21 -11 -21 -13 -6 -19 20 -7 55 1 55 14 0 15 -26 18
-49 5z"/>
<path d="M6400 5245 c-10 -12 -9 -16 4 -21 22 -8 46 2 46 21 0 19 -34 20 -50
0z"/>
<path d="M6132 4793 c-7 -3 -19 -18 -27 -34 -14 -27 -14 -29 3 -29 10 0 28 9
41 21 17 16 20 24 10 35 -6 8 -12 14 -13 13 0 0 -7 -3 -14 -6z"/>
<path d="M3387 5334 c-16 -17 36 -90 55 -78 16 10 7 46 -14 65 -25 20 -32 22
-41 13z"/>
<path d="M1470 2620 c0 -5 5 -10 11 -10 5 0 7 5 4 10 -3 6 -8 10 -11 10 -2 0
-4 -4 -4 -10z"/>
<path d="M1463 2335 c0 -44 2 -61 4 -37 2 23 2 59 0 80 -2 20 -4 1 -4 -43z"/>
<path d="M1435 2370 c-3 -5 -1 -18 4 -27 9 -16 10 -14 11 10 0 28 -5 34 -15
17z"/>
<path d="M1360 1619 c0 -11 4 -18 10 -14 5 3 7 12 3 20 -7 21 -13 19 -13 -6z"/>
<path d="M717 2907 c-6 -17 31 -77 48 -77 14 0 24 28 18 48 -3 6 -10 12 -16
12 -6 0 -18 7 -27 15 -15 13 -18 13 -23 2z"/>
<path d="M850 980 c0 -5 5 -10 11 -10 5 0 7 5 4 10 -3 6 -8 10 -11 10 -2 0 -4
-4 -4 -10z"/>
<path d="M2316 2744 c-8 -22 1 -33 23 -27 13 3 17 11 14 24 -6 23 -29 25 -37
3z"/>
<path d="M2290 2562 c0 -14 11 -21 26 -15 21 8 17 23 -6 23 -11 0 -20 -4 -20
-8z"/>
<path d="M1915 2080 c3 -5 8 -10 11 -10 2 0 4 5 4 10 0 6 -5 10 -11 10 -5 0
-7 -4 -4 -10z"/>
<path d="M1830 1655 c0 -8 5 -15 10 -15 6 0 10 7 10 15 0 8 -4 15 -10 15 -5 0
-10 -7 -10 -15z"/>
<path d="M3131 1624 c0 -11 3 -14 6 -6 3 7 2 16 -1 19 -3 4 -6 -2 -5 -13z"/>
<path d="M8251 2024 c0 -11 3 -14 6 -6 3 7 2 16 -1 19 -3 4 -6 -2 -5 -13z"/>
<path d="M7225 1060 c-3 -5 -1 -10 4 -10 6 0 11 5 11 10 0 6 -2 10 -4 10 -3 0
-8 -4 -11 -10z"/>
<path d="M7100 787 c0 -13 7 -30 16 -38 14 -11 15 -9 12 21 -4 39 -28 54 -28
17z"/>
<path d="M7744 1655 c21 -16 32 -13 21 4 -3 6 -14 11 -23 11 -15 -1 -15 -2 2
-15z"/>
<path d="M7784 1628 c-13 -21 -15 -48 -3 -48 6 0 8 -9 4 -20 -5 -15 -2 -20 14
-20 17 0 19 5 16 41 -4 47 -18 68 -31 47z"/>
<path d="M7750 1111 c-5 -11 -10 -29 -10 -41 0 -20 1 -20 26 5 22 22 24 27 10
40 -13 14 -16 13 -26 -4z"/>
<path d="M7850 1119 c0 -5 5 -7 10 -4 6 3 10 8 10 11 0 2 -4 4 -10 4 -5 0 -10
-5 -10 -11z"/>
<path d="M7770 1049 c0 -5 5 -7 10 -4 6 3 10 8 10 11 0 2 -4 4 -10 4 -5 0 -10
-5 -10 -11z"/>
<path d="M7743 935 c0 -22 2 -30 4 -17 2 12 2 30 0 40 -3 9 -5 -1 -4 -23z"/>
<path d="M7710 825 c0 -8 5 -15 10 -15 6 0 10 7 10 15 0 8 -4 15 -10 15 -5 0
-10 -7 -10 -15z"/>
<path d="M7682 770 c0 -14 2 -19 5 -12 2 6 2 18 0 25 -3 6 -5 1 -5 -13z"/>
<path d="M7725 770 c-3 -5 1 -10 9 -10 9 0 16 5 16 10 0 6 -4 10 -9 10 -6 0
-13 -4 -16 -10z"/>
<path d="M5050 1060 c0 -5 5 -10 11 -10 5 0 7 5 4 10 -3 6 -8 10 -11 10 -2 0
-4 -4 -4 -10z"/>
<path d="M5330 620 c0 -5 5 -10 10 -10 6 0 10 5 10 10 0 6 -4 10 -10 10 -5 0
-10 -4 -10 -10z"/>
<path d="M5541 384 c0 -11 3 -14 6 -6 3 7 2 16 -1 19 -3 4 -6 -2 -5 -13z"/>
<path d="M9667 3600 c10 -11 19 -20 20 -20 2 0 3 9 3 20 0 13 -7 20 -20 20
-19 0 -19 -1 -3 -20z"/>
<path d="M9530 3585 c0 -20 5 -25 25 -25 19 0 23 4 18 18 -14 37 -43 42 -43 7z"/>
<path d="M9796 3593 c-13 -14 -5 -23 22 -23 22 0 68 18 52 21 -41 6 -68 7 -74
2z"/>
<path d="M9710 3480 c0 -5 5 -10 11 -10 5 0 7 5 4 10 -3 6 -8 10 -11 10 -2 0
-4 -4 -4 -10z"/>
<path d="M9691 3433 c1 -10 -2 -29 -8 -43 -6 -14 -14 -51 -17 -83 -6 -48 -5
-62 10 -78 9 -10 12 -19 6 -19 -19 0 0 -41 24 -52 18 -8 24 -19 24 -42 0 -22
3 -27 11 -19 6 6 12 34 12 62 0 28 4 51 9 51 4 0 8 6 8 14 0 8 6 16 14 19 9 4
17 26 21 54 3 26 13 61 22 77 13 24 13 30 2 37 -25 16 -48 3 -46 -25 1 -10 -4
-21 -12 -24 -8 -2 -11 0 -7 6 4 6 -1 8 -13 5 -20 -5 -37 26 -32 60 1 10 -4 17
-14 17 -10 0 -15 -7 -14 -17z"/>
<path d="M9751 3064 c0 -11 3 -14 6 -6 3 7 2 16 -1 19 -3 4 -6 -2 -5 -13z"/>
<path d="M390 260 c0 -5 5 -10 10 -10 6 0 10 5 10 10 0 6 -4 10 -10 10 -5 0
-10 -4 -10 -10z"/>
</g>
</svg>
